<svg width="16" height="16" xmlns="http://www.w3.org/2000/svg" viewBox="0 0 88 88"><path fill="#f84646" d="M48,92A44,44,0,1,1,92,48,44,44,0,0,1,48,92Zm0-80A36,36,0,1,0,84,48,36,36,0,0,0,48,12Z" transform="translate(-4 -4)"/><path fill="#f84646" d="M48,71a4,4,0,0,1-4-4V44a4,4,0,0,1,8,0V67A4,4,0,0,1,48,71Z" transform="translate(-4 -4)"/><circle stroke="#f84646" fill="#f84646" cx="44" cy="27" r="4"/><path fill="#f84646" d="M48,36a5,5,0,1,1,5-5A5,5,0,0,1,48,36Zm0-8a3,3,0,1,0,3,3A2.95,2.95,0,0,0,48,28Z" transform="translate(-4 -4)"/></svg>