<svg width="118" height="40" xmlns="http://www.w3.org/2000/svg" viewBox="0 0 117.01 40"><path fill="#879296" d="M280.33,109.39a2.14,2.14,0,0,1-.6.11.59.59,0,0,1-.66-.66v-3.24c0-2.73-1.62-4-4.18-4a11.08,11.08,0,0,0-3.47.6v1.85a8.05,8.05,0,0,1,3.26-.7c1.54,0,2.37.79,2.37,1.92v.32a12,12,0,0,0-2.36-.26c-1.88,0-4,.72-4,3,0,1.87,1.53,2.77,3.17,2.77a5.25,5.25,0,0,0,3.41-1.17,1.81,1.81,0,0,0,1.81,1.06,3.52,3.52,0,0,0,1.28-.23v-1.45Zm-3.28-.85a3.68,3.68,0,0,1-2.62,1.07c-.9,0-1.7-.45-1.7-1.34,0-1.13,1.21-1.49,2.36-1.49a10.56,10.56,0,0,1,2,.23v1.53Zm9,2.64a6.81,6.81,0,0,0,3-.62V108.7a5.44,5.44,0,0,1-2.64.7,3,3,0,1,1,0-6,4.42,4.42,0,0,1,2.51.75v-1.85a5.47,5.47,0,0,0-2.79-.7,4.69,4.69,0,0,0-5,4.84,4.57,4.57,0,0,0,4.88,4.69Zm8.29-5.8c-1.88,0-4,.72-4,3,0,1.87,1.53,2.77,3.17,2.77a5.25,5.25,0,0,0,3.41-1.17,1.81,1.81,0,0,0,1.81,1.05,3.54,3.54,0,0,0,1.28-.23v-1.45a2.13,2.13,0,0,1-.6.11.59.59,0,0,1-.66-.66v-3.24c0-2.73-1.62-4-4.18-4a11.08,11.08,0,0,0-3.47.6v1.85a8.05,8.05,0,0,1,3.26-.7c1.55,0,2.37.79,2.37,1.92v.32a12,12,0,0,0-2.36-.26Zm2.36,3.17a3.68,3.68,0,0,1-2.62,1.07c-.9,0-1.7-.45-1.7-1.34,0-1.13,1.21-1.49,2.36-1.49a10.56,10.56,0,0,1,2,.23v1.53Zm4.11-2.13a4.49,4.49,0,0,0,4.48,4.77,4.21,4.21,0,0,0,3.47-1.68v1.43h1.81V97.75h-2v5.31a4.19,4.19,0,0,0-3.26-1.41,4.49,4.49,0,0,0-4.48,4.77Zm7.73-1.11v2.2a3.15,3.15,0,0,1-2.88,1.9,3,3,0,0,1,0-6,3.16,3.16,0,0,1,2.88,1.88Zm9.12,5.88a7.75,7.75,0,0,0,3.24-.62v-1.73a6.62,6.62,0,0,1-2.86.64c-1.66,0-3.24-.68-3.47-2.3h6.8c.58-2.62-.66-5.52-4.26-5.52a4.53,4.53,0,0,0-4.58,4.77c0,3.18,2.36,4.77,5.13,4.77Zm-.45-7.86a2.13,2.13,0,0,1,2.36,2.34h-5a2.47,2.47,0,0,1,2.66-2.34Zm18.43,2v5.6h2v-5.65a3.32,3.32,0,0,0-3.43-3.64A4.48,4.48,0,0,0,331,103.1a3.09,3.09,0,0,0-2.83-1.45,4.13,4.13,0,0,0-3,1.38v-1.13h-1.79v9h2v-6.11a3.21,3.21,0,0,1,2.39-1.39,1.72,1.72,0,0,1,1.79,1.9v5.6h2v-5.65c0-.21,0-.41,0-.62a3,3,0,0,1,2.24-1.22,1.72,1.72,0,0,1,1.79,1.9Zm13-3.45h-2.11l-2.69,6.82-3.05-6.82h-2.15l4.3,9.12-.19.45c-.53,1.41-1.26,2.11-2.24,2.11a3.13,3.13,0,0,1-.92-.13v1.71a5.12,5.12,0,0,0,1.19.15c1.38,0,2.66-.79,3.64-3.15l4.24-10.27ZM273.33,89.11a3.18,3.18,0,0,1,2.53-1.51A2,2,0,0,1,278,89.77V95.1h2v-5.6a3.52,3.52,0,0,0-3.73-3.69,4.12,4.12,0,0,0-2.92,1.24V81.91h-2V95.1h2v-6Zm10.18,3.24c0,2.11,1.36,3,3.11,3a7.39,7.39,0,0,0,2.43-.4V93.2a4.87,4.87,0,0,1-1.83.36c-1.17,0-1.72-.4-1.72-1.58V87.83h3.28V86.06h-3.28V82.84l-2,.49v2.73h-1.62v1.77h1.62v4.52ZM293.38,89a3.21,3.21,0,0,1,2.39-1.39,1.72,1.72,0,0,1,1.79,1.9v5.6h2V89.45c0-.21,0-.41,0-.62a3,3,0,0,1,2.24-1.22,1.72,1.72,0,0,1,1.79,1.9v5.6h2V89.45a3.32,3.32,0,0,0-3.43-3.64A4.47,4.47,0,0,0,299,87.26a3.09,3.09,0,0,0-2.83-1.45,4.13,4.13,0,0,0-3,1.38V86.06h-1.79v9h2V89Zm15.16-7.09h2V95.1h-2Zm-61.11-1.57L231.64,82v28.95l15.79,9.4,15.79-9.4V82L247.6,80.35l-.17,0Zm13.73,29.43-13.73,8.17-13.73-8.17V97.9L247.37,106l0,1.47L238,101.93v1.43l9.41,5.66,0,1.51-9.41-5.6v1.43l9.41,5.66,9.5-5.69V104.9h0v-4.67l4.23-2.53v12.06Zm0-13.6-3.76,2.21-1.73,1-8.27-4.92v1.43l7.07,4.2-.06,0-.15.09-1,.59-5.83-3.47v1.43l4.61,2.74-1.09.73,0,0-3.48-2v1.43l2.28,1.34-2.33,1.4-13.6-8.08,13.62-8.19h0l13.79,8Zm0-1.44-13.8-8.14h0l-13.65,8.13V83.85l13.73-1.44,13.73,1.44V94.72Z" transform="translate(-231.64 -80.34)"/></svg>