<svg width="27" height="27" viewBox="0 0 27 27" xmlns="http://www.w3.org/2000/svg"><circle stroke="#879296" fill="none" cx="13.5" cy="13.5" r="12.687"/><path fill="#879296" d="M13.5 8.3h2.567c.403.002.803.075 1.18.213.552.213.988.65 1.2 1.2.14.38.213.778.216 1.18v5.136c-.003.403-.076.803-.215 1.18-.213.552-.65.988-1.2 1.2-.378.14-.778.213-1.18.216h-5.135c-.403-.003-.802-.076-1.18-.215-.552-.214-.988-.65-1.2-1.2-.14-.38-.212-.78-.215-1.182V13.46v-2.566c.003-.403.076-.802.214-1.18.213-.552.65-.988 1.2-1.2.38-.14.778-.212 1.18-.215H13.5m0-1.143h-2.616c-.526.01-1.048.108-1.54.292-.853.33-1.527 1-1.856 1.854-.184.493-.283 1.014-.292 1.542v5.232c.01.526.108 1.048.292 1.54.33.853 1.003 1.527 1.855 1.856.493.184 1.015.283 1.54.293H16.117c.527-.01 1.048-.11 1.54-.293.854-.33 1.527-1.003 1.856-1.855.184-.493.283-1.015.293-1.54V13.46v-2.614c-.01-.528-.11-1.05-.293-1.542-.33-.853-1.002-1.525-1.855-1.855-.493-.185-1.014-.283-1.54-.293-.665.01-.89 0-2.617 0zm0 3.093c-2.51.007-4.07 2.73-2.808 4.898 1.26 2.17 4.398 2.16 5.645-.017.285-.495.434-1.058.433-1.63-.006-1.8-1.47-3.256-3.27-3.25zm0 5.378c-1.63-.007-2.64-1.777-1.82-3.185.823-1.41 2.86-1.4 3.67.017.18.316.276.675.278 1.04.006 1.177-.95 2.133-2.128 2.128zm4.118-5.524c0 .58-.626.94-1.127.65-.5-.29-.5-1.012 0-1.3.116-.067.245-.102.378-.102.418-.005.76.333.76.752z"/></svg>