<svg width="160" height="39" xmlns="http://www.w3.org/2000/svg" viewBox="0 0 637.15 149.53"><path d="M306.36-188l0,0a40.15,40.15,0,0,0-37.75-22.41l0-.09a6.19,6.19,0,0,1-7.33-4.8,6.19,6.19,0,0,1,4.8-7.33,6.17,6.17,0,0,1,2.5,0,32.82,32.82,0,0,0-20.9-2.5,33,33,0,0,0-25.53,39,33,33,0,0,0,3.07,8.56,33.06,33.06,0,0,1-10-10.49,56.85,56.85,0,0,0-14,36.52V-127a50.73,50.73,0,0,0,50.73,50.73h17.78A50.73,50.73,0,0,0,320.37-127v-24.49A56.85,56.85,0,0,0,306.36-188Z" transform="translate(31.22 225.77)" fill="#fff"/><path d="M286.34-165.5c-14.14,0-28.43,8.17-28.43,8.17l8.57-10.34s-8.23,8.59-26.66,8.59-24.16-4.29-24.16-4.29v31a29.24,29.24,0,0,0,26.78,29.13,2.82,2.82,0,0,1,.13-.28l3.48-6c1-1.63,2.5-1.63,3.46,0l3.48,6c.07.13.13.27.19.4h15.15c.06-.14.12-.28.19-.4l3.48-6c1-1.63,2.5-1.63,3.46,0l3.48,6a2.82,2.82,0,0,1,.13.28,29.24,29.24,0,0,0,26.78-29.13v-31S300.48-165.5,286.34-165.5Z" transform="translate(31.22 225.77)" fill="#45abde"/><circle cx="274.08" cy="86.5" r="6.04" fill="#25434e"/><circle cx="309.87" cy="86.5" r="6.04" fill="#25434e"/><path d="M380.52-170q-10.61,0-16.43,8t-5.82,22.23q0,29.66,22.26,29.66,9.34,0,22.62-4.67V-99a62.83,62.83,0,0,1-24.38,4.55q-19.35,0-29.6-11.74t-10.25-33.69q0-13.83,5-24.23a36.38,36.38,0,0,1,14.46-16q9.43-5.55,22.11-5.55a59.67,59.67,0,0,1,26,6.25l-6.06,15.28a100.67,100.67,0,0,0-10-4.12A29.87,29.87,0,0,0,380.52-170Z" transform="translate(31.22 225.77)" fill="#25434e"/><path d="M457.4-95.67l-3.58-9.22h-.49q-4.67,5.88-9.61,8.16t-12.89,2.27q-9.76,0-15.37-5.58t-5.61-15.89q0-10.79,7.55-15.92t22.77-5.67l11.77-.36v-3q0-10.31-10.55-10.31-8.13,0-19.1,4.91l-6.13-12.49a55.13,55.13,0,0,1,26-6.13q13.65,0,20.92,5.94t7.28,18.07v45.18Zm-5.46-31.42-7.16.24q-8.07.24-12,2.91t-3.94,8.13q0,7.82,9,7.82,6.43,0,10.28-3.7a13,13,0,0,0,3.85-9.82Z" transform="translate(31.22 225.77)" fill="#25434e"/><path d="M499.28-95.67l-25.84-67.8h19.35l13.1,38.63A68.92,68.92,0,0,1,508.62-111H509a60.35,60.35,0,0,1,2.73-13.89l13-38.63H544.1l-25.83,67.8Z" transform="translate(31.22 225.77)" fill="#25434e"/><path d="M578.28-94.45q-16.37,0-25.59-9t-9.22-25.59q0-17,8.52-26.35t23.56-9.31q14.37,0,22.38,8.19t8,22.62v9H562.21q.3,7.88,4.67,12.31t12.25,4.43a50.85,50.85,0,0,0,11.58-1.27,58,58,0,0,0,11.4-4.06v14.31a43.42,43.42,0,0,1-10.37,3.61A65.38,65.38,0,0,1,578.28-94.45Zm-2.61-57.13q-5.88,0-9.22,3.73t-3.82,10.58h26q-.12-6.85-3.58-10.58A12.12,12.12,0,0,0,575.67-151.58Z" transform="translate(31.22 225.77)" fill="#25434e"/><path d="M7.54-148.74,26-185.25H46.29L16.88-131.09v34.51H-1.8v-33.9l-29.41-54.76h20.38Z" transform="translate(31.22 225.77)" fill="#25434e"/><path d="M80.47-95.37q-16.37,0-25.59-9T45.66-130q0-17,8.52-26.35t23.56-9.31q14.37,0,22.38,8.19t8,22.62v9H64.4q.3,7.88,4.67,12.31t12.25,4.43a50.85,50.85,0,0,0,11.58-1.27,58,58,0,0,0,11.4-4.06v14.31a43.44,43.44,0,0,1-10.37,3.61A65.38,65.38,0,0,1,80.47-95.37ZM77.86-152.5q-5.88,0-9.22,3.73t-3.82,10.58h26q-.12-6.85-3.58-10.58A12.12,12.12,0,0,0,77.86-152.5Z" transform="translate(31.22 225.77)" fill="#25434e"/><path d="M145.52-110.1a40.07,40.07,0,0,0,11.64-2.12v13.77q-6.91,3.09-17,3.09-11.1,0-16.16-5.61T119-117.81v-32.69H110.1v-7.82l10.19-6.19,5.34-14.31h11.83v14.43h19v13.89h-19v32.69q0,3.94,2.21,5.82A8.73,8.73,0,0,0,145.52-110.1Z" transform="translate(31.22 225.77)" fill="#25434e"/><path d="M163.87-181.91q0-9,10.07-9t10.07,9a8.81,8.81,0,0,1-2.52,6.7q-2.52,2.4-7.55,2.4Q163.87-172.81,163.87-181.91Zm19.29,85.33h-18.5v-67.8h18.5Z" transform="translate(31.22 225.77)" fill="#25434e"/></svg>