<svg width="12" height="13" xmlns="http://www.w3.org/2000/svg" viewBox="0 0 277.9 362.76"><path fill="#25434e" d="M426.26,205c-5.87-15.13-14.41-24.14-23.47-32.59s-25.11-16.67-38.44-19.49c-9.6-2.46-23.73-3.52-41.86-3.52H181.69v168h-23V355.1h23v15.27h-23v37.69h23V512.12h40.37V408.06H366.65V370.37H222.06V355.1H325.69c38.93,0,66.78-10.89,84.15-32,16.6-20.2,26.76-37.9,26.76-68.86C436.59,236.27,431.6,219.74,426.26,205Zm-53,95.21c-10.13,11.61-23.54,17.24-47,17.24H222.06V187.93H325.42c16.53,0,28,1.06,33.86,3.17,9.71,6.16,17.33,10.91,22.93,21.46,5.87,10.91,8.8,23.93,8.8,38.7A74.69,74.69,0,0,1,373.22,300.17Z" transform="translate(-158.69 -149.37)"/></svg>