<svg width="12" height="12" xmlns="http://www.w3.org/2000/svg" viewBox="0 0 11 12"><path fill="#ffffff" d="M50,56a5.43,5.43,0,0,0,5.5-5.34,5.2,5.2,0,0,0-1.23-3.33l.58-.56a.57.57,0,0,0,0-.82.61.61,0,0,0-.84,0l-.58.56a5.53,5.53,0,0,0-2.83-1.14v-.21h.88a.58.58,0,1,0,0-1.16H48.53a.58.58,0,1,0,0,1.16h.88v.21A5.33,5.33,0,0,0,50,56Zm0-9.53a4.19,4.19,0,1,1-4.31,4.19A4.26,4.26,0,0,1,50,46.47Z" transform="translate(-44.5 -44)"/><path fill="#ffffff" d="M49.75,51.89a1.07,1.07,0,0,0,1.09-1.05,1,1,0,0,0-.18-.55l.62-1.36a.57.57,0,0,0-.3-.76.6.6,0,0,0-.79.29l-.62,1.36a1.05,1.05,0,0,0-.9,1A1.07,1.07,0,0,0,49.75,51.89Z" transform="translate(-44.5 -44)"/></svg>