<svg width="27" height="27" viewBox="0 0 27 27" xmlns="http://www.w3.org/2000/svg"><circle stroke="#879296" fill="none" cx="13.5" cy="13.5" r="12.687"/><path fill="#879296" d="M18.38 10.572c.525-.336.913-.848 1.092-1.445-.485.305-1.02.52-1.58.635-.458-.525-1.12-.827-1.816-.83-1.388.063-2.473 1.226-2.44 2.615-.002.2.02.4.06.596-2.017-.144-3.87-1.16-5.076-2.78-.22.403-.335.856-.332 1.315-.01.865.403 1.68 1.104 2.188-.397-.016-.782-.13-1.123-.333-.03 1.207.78 2.272 1.95 2.567-.21.06-.43.09-.653.088-.155.015-.313.015-.47 0 .3 1.045 1.238 1.777 2.324 1.815-.864.724-1.956 1.12-3.083 1.122-.198.013-.397.013-.595 0 1.12.767 2.447 1.18 3.805 1.182 4.57 0 7.066-3.992 7.066-7.456v-.34c.49-.375.912-.835 1.24-1.357-.465.218-.963.36-1.473.42z"/></svg>